<svg width="54" height="66" viewBox="0 0 54 66" fill="none" xmlns="http://www.w3.org/2000/svg">
<path d="M27 0L51.651 5.478C52.3172 5.62609 52.913 5.9969 53.34 6.52921C53.7671 7.06153 53.9999 7.72355 54 8.406V38.367C53.9998 41.3302 53.268 44.2475 51.8697 46.86C50.4713 49.4725 48.4496 51.6994 45.984 53.343L27 66L8.016 53.343C5.55082 51.6997 3.52938 49.4733 2.13104 46.8614C0.732707 44.2494 0.000709069 41.3327 0 38.37V8.406C0.000117113 7.72355 0.232914 7.06153 0.659969 6.52921C1.08702 5.9969 1.68281 5.62609 2.349 5.478L27 0ZM27 18C25.6792 18.0001 24.3954 18.4359 23.3476 19.24C22.2998 20.044 21.5466 21.1713 21.2047 22.4471C20.8629 23.7228 20.9515 25.0757 21.4569 26.296C21.9623 27.5162 22.8562 28.5356 24 29.196V42H30L30.003 29.196C31.147 28.5354 32.041 27.5158 32.5464 26.2953C33.0517 25.0747 33.1401 23.7215 32.7979 22.4456C32.4557 21.1697 31.7019 20.0424 30.6536 19.2386C29.6053 18.4348 28.321 17.9994 27 18Z" fill="#42E2B8"/>
</svg>
