<svg width="194" height="61" viewBox="0 0 194 61" fill="none" xmlns="http://www.w3.org/2000/svg">
<path fill-rule="evenodd" clip-rule="evenodd" d="M65.8914 6.53432C65.8914 3.40161 63.356 0.859131 60.2353 0.859131C57.1145 0.859131 54.5792 3.40161 54.5792 6.53432V54.7734C54.5792 57.9047 57.1145 60.4486 60.2353 60.4486C63.356 60.4486 65.8914 57.9047 65.8914 54.7734V6.53432ZM139.421 6.53432C139.421 3.40161 136.885 0.859131 133.765 0.859131C130.644 0.859131 128.109 3.40161 128.109 6.53432V54.7734C128.109 57.9047 130.644 60.4486 133.765 60.4486C136.885 60.4486 139.421 57.9047 139.421 54.7734V6.53432ZM165.58 12.2095C162.068 12.2095 159.217 15.0698 159.217 18.5941C159.217 22.1184 162.068 24.9787 165.58 24.9787H175.535C185.265 25.0085 193.154 32.9438 193.154 42.7136C193.154 52.5005 185.234 60.4486 175.478 60.4486C175.176 60.4486 156.378 60.4259 156.378 60.4259C153.263 60.4259 150.733 57.8876 150.733 54.762C150.733 51.6364 153.263 49.0982 156.378 49.0982H175.478C178.991 49.0982 181.842 46.2379 181.842 42.7136C181.842 39.1893 178.991 36.329 175.478 36.329H165.524C155.794 36.2978 147.905 28.3625 147.905 18.5941C147.905 8.80581 155.825 0.859131 165.58 0.859131C165.883 0.859131 184.681 0.881836 184.681 0.881836C187.796 0.881836 190.326 3.41865 190.326 6.54568C190.326 9.67128 187.796 12.2095 184.681 12.2095H165.58ZM11.054 58.1402C10.0232 59.5391 8.36736 60.4486 6.50226 60.4486C3.38009 60.4486 0.846153 57.9047 0.846153 54.7734V6.53432C0.846153 3.40161 3.38009 0.859131 6.50226 0.859131C9.62443 0.859131 12.1584 3.40161 12.1584 6.53432V18.5941C12.1584 22.1184 15.009 24.9787 18.5215 24.9787C22.0339 24.9787 24.8846 22.1184 24.8846 18.5941V6.53432C24.8846 3.40729 27.4143 0.870492 30.5294 0.870492C33.6445 0.870492 36.1742 3.40729 36.1742 6.53432C36.1742 6.53432 36.1968 18.2905 36.1968 18.5941C36.1968 21.8375 35.3272 24.8808 33.8085 27.4984C41.0809 31.2526 46.0625 38.8446 46.095 47.6085V54.7734C46.095 57.9047 43.5597 60.4486 40.4389 60.4486C37.3182 60.4486 34.7828 57.9047 34.7828 54.7734V47.695C34.7828 41.4268 29.7178 36.3447 23.4706 36.3447C17.2234 36.3447 12.1584 41.4268 12.1584 47.695V54.7734C12.1584 56.0333 11.7483 57.1981 11.054 58.1402ZM74.3756 23.4889C74.4222 10.9922 84.5339 0.874753 97 0.874753C109.466 0.874753 119.578 10.9922 119.624 23.4889V54.7734C119.624 57.9047 117.089 60.4486 113.968 60.4486C110.848 60.4486 108.312 57.9047 108.312 54.7734V23.5755C108.312 17.3072 103.247 12.2251 97 12.2251C90.7528 12.2251 85.6878 17.3072 85.6878 23.5755V54.7734C85.6878 57.9047 83.1524 60.4486 80.0317 60.4486C76.9109 60.4486 74.3756 57.9047 74.3756 54.7734V23.4889Z" fill="white"/>
</svg>
