<svg width="18" height="16" viewBox="0 0 18 16" fill="none" xmlns="http://www.w3.org/2000/svg">
<path d="M6.5 0.5H11.5L13.1667 2.16667H16.5C16.721 2.16667 16.933 2.25446 17.0893 2.41074C17.2455 2.56702 17.3333 2.77899 17.3333 3V14.6667C17.3333 14.8877 17.2455 15.0996 17.0893 15.2559C16.933 15.4122 16.721 15.5 16.5 15.5H1.5C1.27899 15.5 1.06702 15.4122 0.910745 15.2559C0.754464 15.0996 0.666667 14.8877 0.666667 14.6667V3C0.666667 2.77899 0.754464 2.56702 0.910745 2.41074C1.06702 2.25446 1.27899 2.16667 1.5 2.16667H4.83333L6.5 0.5ZM9 13.8333C10.3261 13.8333 11.5979 13.3065 12.5355 12.3689C13.4732 11.4312 14 10.1594 14 8.83333C14 7.50725 13.4732 6.23548 12.5355 5.2978C11.5979 4.36012 10.3261 3.83333 9 3.83333C7.67392 3.83333 6.40215 4.36012 5.46447 5.2978C4.52678 6.23548 4 7.50725 4 8.83333C4 10.1594 4.52678 11.4312 5.46447 12.3689C6.40215 13.3065 7.67392 13.8333 9 13.8333ZM9 12.1667C8.11595 12.1667 7.2681 11.8155 6.64298 11.1904C6.01786 10.5652 5.66667 9.71739 5.66667 8.83333C5.66667 7.94928 6.01786 7.10143 6.64298 6.47631C7.2681 5.85119 8.11595 5.5 9 5.5C9.88406 5.5 10.7319 5.85119 11.357 6.47631C11.9821 7.10143 12.3333 7.94928 12.3333 8.83333C12.3333 9.71739 11.9821 10.5652 11.357 11.1904C10.7319 11.8155 9.88406 12.1667 9 12.1667Z" fill="#42E2B8"/>
</svg>
