<svg width="104" height="104" viewBox="0 0 104 104" fill="none" xmlns="http://www.w3.org/2000/svg">
<path d="M0 8C0 3.58172 3.58172 0 8 0H104V104H8C3.58172 104 0 100.418 0 96V8Z" fill="#BCE2F9"/>
<path d="M4.875 45.5V66.625C4.875 73.0897 7.44307 79.2895 12.0143 83.8607C16.5855 88.4319 22.7853 91 29.25 91H74.75C81.2147 91 87.4145 88.4319 91.9857 83.8607C96.5569 79.2895 99.125 73.0897 99.125 66.625V45.5H4.875Z" fill="#D6BFAE"/>
<path d="M16.25 22.75H87.75V63.375H16.25V22.75Z" fill="#F07F2F"/>
<path d="M22.75 66.625V56.875C22.75 52.9962 24.2908 49.2763 27.0336 46.5336C29.7763 43.7908 33.4962 42.25 37.375 42.25H66.625C70.5038 42.25 74.2237 43.7908 76.9664 46.5336C79.7092 49.2763 81.25 52.9962 81.25 56.875V66.625H22.75Z" fill="#B9CD2A"/>
<path d="M70.6875 13H33.3125C25.7704 13 18.5372 15.9961 13.2042 21.3292C7.87109 26.6622 4.875 33.8954 4.875 41.4375V46.3125C4.875 53.8546 7.87109 61.0878 13.2042 66.4209C18.5372 71.7539 25.7704 74.75 33.3125 74.75H70.6875C78.2296 74.75 85.4628 71.7539 90.7958 66.4208C96.1289 61.0878 99.125 53.8546 99.125 46.3125V41.4375C99.125 33.8954 96.1289 26.6622 90.7958 21.3292C85.4628 15.9961 78.2296 13 70.6875 13ZM86.125 43.875C86.125 48.6157 84.2417 53.1623 80.8895 56.5145C77.5373 59.8667 72.9907 61.75 68.25 61.75H35.75C31.0092 61.75 26.4627 59.8667 23.1105 56.5145C19.7583 53.1623 17.875 48.6157 17.875 43.875C17.875 39.1343 19.7583 34.5877 23.1105 31.2355C26.4627 27.8833 31.0092 26 35.75 26H68.25C72.9907 26 77.5373 27.8833 80.8895 31.2355C84.2417 34.5877 86.125 39.1343 86.125 43.875Z" fill="#E9D5C6"/>
<path d="M45.5 81.25H52V91H45.5V81.25Z" fill="#CFB6A4"/>
<path d="M52 81.25H58.5V91H52V81.25Z" fill="#C7AB97"/>
<path d="M70.6875 11.375H33.3125C16.736 11.375 3.25 24.861 3.25 41.4375V66.625C3.2578 73.5182 5.99958 80.1269 10.8738 85.0012C15.7481 89.8754 22.3568 92.6172 29.25 92.625H74.75C81.6432 92.6172 88.2519 89.8754 93.1262 85.0012C98.0004 80.1269 100.742 73.5182 100.75 66.625V41.4375C100.75 24.861 87.264 11.375 70.6875 11.375ZM50.375 89.375H47.125V82.875H50.375V89.375ZM53.625 89.375V82.875H56.875V89.375H53.625ZM97.5 66.625C97.4932 72.6566 95.0941 78.4392 90.8291 82.7041C86.5642 86.9691 80.7816 89.3682 74.75 89.375H60.125V81.25C60.125 80.819 59.9538 80.4057 59.649 80.101C59.3443 79.7962 58.931 79.625 58.5 79.625H45.5C45.069 79.625 44.6557 79.7962 44.351 80.101C44.0462 80.4057 43.875 80.819 43.875 81.25V89.375H29.25C23.2184 89.3682 17.4358 86.9691 13.1709 82.7041C8.90589 78.4392 6.50683 72.6566 6.5 66.625V59.8989C9.01351 64.852 12.8487 69.0129 17.581 71.9209C22.3134 74.8288 27.7581 76.3704 33.3125 76.375H70.6875C76.2419 76.3704 81.6866 74.8288 86.419 71.9209C91.1513 69.0129 94.9865 64.852 97.5 59.8989V66.625ZM97.5 46.3125C97.5 61.097 85.472 73.125 70.6875 73.125H33.3125C18.528 73.125 6.5 61.097 6.5 46.3125V41.4375C6.5 26.653 18.528 14.625 33.3125 14.625H70.6875C85.472 14.625 97.5 26.653 97.5 41.4375V46.3125Z" fill="black"/>
<path d="M30.875 66.625H34.125V69.875H30.875V66.625Z" fill="black"/>
<path d="M63.375 81.25H66.625V84.5H63.375V81.25Z" fill="black"/>
<path d="M69.875 81.25H73.125V84.5H69.875V81.25Z" fill="black"/>
<path d="M76.375 81.25H79.625V84.5H76.375V81.25Z" fill="black"/>
<path d="M24.375 81.25H27.625V84.5H24.375V81.25Z" fill="black"/>
<path d="M30.875 81.25H34.125V84.5H30.875V81.25Z" fill="black"/>
<path d="M37.375 81.25H40.625V84.5H37.375V81.25Z" fill="black"/>
<path d="M91 40.625V45.5C90.9937 51.1008 88.766 56.4703 84.8056 60.4306C80.8453 64.391 75.4758 66.6187 69.875 66.625H37.375V69.875H69.875C76.3374 69.8677 82.533 67.2973 87.1026 62.7276C91.6722 58.158 94.2427 51.9624 94.25 45.5V40.625H91Z" fill="black"/>
<path d="M87.75 43.875C87.7442 38.7051 85.6878 33.7486 82.0321 30.0929C78.3764 26.4372 73.4199 24.3808 68.25 24.375H35.75C30.5783 24.375 25.6184 26.4295 21.9614 30.0864C18.3045 33.7434 16.25 38.7033 16.25 43.875C16.25 49.0467 18.3045 54.0066 21.9614 57.6636C25.6184 61.3205 30.5783 63.375 35.75 63.375H68.25C73.4199 63.3692 78.3764 61.3128 82.0321 57.6571C85.6878 54.0014 87.7442 49.0449 87.75 43.875ZM21.2952 51.2849C22.0304 47.8388 23.597 44.6247 25.8585 41.9225L27.3803 44.053C24.7189 46.124 22.7696 48.9732 21.8036 52.2041C21.6239 51.9042 21.4558 51.5968 21.2952 51.2849ZM37.7322 27.625H50.375V30.875H42.519C41.1555 30.8751 39.7943 30.9868 38.449 31.209L37.7322 27.625ZM65.551 31.209C64.2057 30.9868 62.8445 30.8751 61.481 30.875H53.625V27.625H66.2678L65.551 31.209ZM82.1953 52.206C81.2285 48.9755 79.2791 46.1265 76.6181 44.0553L78.1415 41.9225C80.403 44.6247 81.9696 47.8388 82.7048 51.2849C82.5439 51.5975 82.3754 51.9055 82.1953 52.206ZM73.125 45.6116V59.3769C72.0675 59.7102 70.9784 59.9337 69.875 60.0436V44.286C71.0135 44.5782 72.1069 45.0241 73.125 45.6116ZM76.375 48.2693C78.1696 50.297 79.2823 52.837 79.5559 55.531C78.5979 56.4605 77.5297 57.2691 76.375 57.9388V48.2693ZM73.8618 42.3229C71.7208 41.2588 69.3708 40.682 66.9805 40.6337L68.0771 35.1503C70.9406 36.0672 73.5828 37.5679 75.8369 39.5576L73.8618 42.3229ZM63.6678 40.625H53.625V34.125H61.481C62.6303 34.1264 63.7777 34.219 64.9124 34.4018L63.6678 40.625ZM42.519 34.125H50.375V40.625H40.3322L39.0876 34.4018C40.2223 34.219 41.3697 34.1264 42.519 34.125ZM37.0195 40.6337C34.6289 40.6816 32.2786 41.2578 30.1369 42.3211L28.163 39.5576C30.4172 37.5679 33.0594 36.0672 35.9229 35.1503L37.0195 40.6337ZM27.625 48.2662V57.9388C26.4706 57.2693 25.4025 56.4608 24.4446 55.5315C24.7175 52.8363 25.8299 50.295 27.625 48.2662ZM30.875 45.6095C31.8931 45.0225 32.9865 44.5769 34.125 44.2852V60.0436C33.0216 59.9337 31.9325 59.7102 30.875 59.3769V45.6095ZM37.375 43.875H40.625V60.125H37.375V43.875ZM43.875 43.875H47.125V60.125H43.875V43.875ZM50.375 43.875H53.625V60.125H50.375V43.875ZM56.875 43.875H60.125V60.125H56.875V43.875ZM63.375 43.875H66.625V60.125H63.375V43.875ZM84.3721 45.878C83.31 43.4369 81.8632 41.1819 80.0868 39.1991L82.4194 35.9334C83.7857 38.3571 84.5024 41.0928 84.5 43.875C84.4985 44.5447 84.4558 45.2136 84.3721 45.878ZM80.427 33.1316L77.736 36.8989C75.1059 34.6408 72.0348 32.9544 68.7178 31.947L69.5706 27.6832C73.7585 28.0246 77.6505 29.9778 80.427 33.1316ZM34.4294 27.6832L35.2822 31.947C31.9652 32.9544 28.8941 34.6408 26.264 36.8989L23.573 33.1316C26.3495 29.9778 30.2415 28.0246 34.4294 27.6832ZM21.5806 35.9334L23.9132 39.1991C22.1368 41.1819 20.69 43.4369 19.6279 45.878C19.5442 45.2136 19.5015 44.5447 19.5 43.875C19.4977 41.0928 20.2143 38.3571 21.5806 35.9334Z" fill="black"/>
</svg>
