<svg width="104" height="104" viewBox="0 0 104 104" fill="none" xmlns="http://www.w3.org/2000/svg">
<path d="M0 8C0 3.58172 3.58172 0 8 0H104V104H8C3.58172 104 0 100.418 0 96V8Z" fill="#C6F6EA"/>
<path d="M87.75 40.5823C87.7496 41.4555 87.4026 42.2928 86.7851 42.9102C86.1677 43.5276 85.3305 43.8746 84.4573 43.875C83.4937 43.8749 82.5491 43.6066 81.7294 43.1C80.9096 42.5934 80.2471 41.8687 79.8159 41.0069L79.625 40.625L62.5239 32.0734L62.4467 32.0348C62.1749 32.4632 61.8477 32.8539 61.4738 33.1967C61.0699 33.5678 60.6159 33.8803 60.125 34.125V40.625H43.875V34.125C42.9264 33.6509 42.124 32.9286 41.5533 32.0348L41.4395 32.0917L24.375 40.625L24.1841 41.0069C23.7525 41.8683 23.0899 42.5928 22.2702 43.0993C21.4505 43.6058 20.5062 43.8744 19.5426 43.875C18.8604 43.8749 18.195 43.6628 17.6384 43.2682C17.0819 42.8736 16.6616 42.3158 16.4357 41.672C16.2099 41.0283 16.1895 40.3302 16.3774 39.6744C16.5654 39.0185 16.9524 38.4372 17.485 38.0108L38.8436 20.9239C39.9974 20.0042 41.4286 19.5023 42.9041 19.5H61.096C62.5715 19.5023 64.0026 20.0042 65.1564 20.9239L86.515 38.0108C86.9002 38.3197 87.2111 38.7111 87.4249 39.1562C87.6386 39.6012 87.7497 40.0886 87.75 40.5823Z" fill="#FFCEB6"/>
<path d="M63.375 28.8661C63.375 29.9581 63.0712 31.0285 62.4975 31.9577L62.5239 32.0734L62.4468 32.0348C62.1749 32.4632 61.8477 32.8539 61.4738 33.1967C61.0699 33.5678 60.6159 33.8803 60.125 34.125V40.625H43.875V34.125C42.9264 33.6509 42.124 32.9286 41.5533 32.0348L41.4395 32.0917L41.5025 31.9577C40.9289 31.0285 40.6251 29.9581 40.625 28.8661V19.9144C41.3536 19.6404 42.1256 19.5001 42.9041 19.5H61.096C61.8744 19.5001 62.6464 19.6404 63.375 19.9144V28.8661Z" fill="#EF5E3B"/>
<path d="M37.2793 64.9043L34.125 66.625L35.75 78H39L42.25 69.875L37.2793 64.9043Z" fill="#E0EDFF"/>
<path d="M44.3468 61.0493L37.2793 64.9042L42.25 69.8749L44.0793 69.312L44.3468 61.0493Z" fill="#FFBFA1"/>
<path d="M63.375 51.3581V57.3747C63.3749 59.1123 62.8178 60.8042 61.7853 62.2018C60.7529 63.5995 59.2996 64.6293 57.6387 65.1402L52 66.8748V40.625H60.125C62.2433 43.8038 63.3741 47.5382 63.375 51.3581Z" fill="#FFCEB6"/>
<path d="M52 40.625V79.625H43.875L41.7077 56.875L41.1796 51.3317C40.8214 47.5591 41.7733 43.7783 43.875 40.625H52Z" fill="#FFCEB6"/>
<path d="M55.25 8.125L57.4904 5.88464C58.1368 5.23818 59.0136 4.875 59.9279 4.875C60.3805 4.875 60.8288 4.96416 61.247 5.1374C61.6652 5.31063 62.0453 5.56454 62.3654 5.88464C62.6854 6.20474 62.9394 6.58475 63.1126 7.00297C63.2858 7.4212 63.375 7.86945 63.375 8.32214V12.016C63.375 13.8183 63.82 15.5927 64.6704 17.1817C65.5208 18.7708 66.7504 20.1253 68.25 21.125H63.375C61.6511 21.125 59.9978 20.4402 58.7788 19.2212C57.5598 18.0022 56.875 16.3489 56.875 14.625L55.25 11.375V8.125Z" fill="#B1712C"/>
<path d="M56.875 13L56.8337 17.4298C56.875 18.9424 54.6924 21.125 52 21.125C50.7071 21.125 49.4671 20.6114 48.5529 19.6971C47.6386 18.7829 47.125 17.5429 47.125 16.25V13H56.875Z" fill="#FFCEB6"/>
<path d="M56.875 13V11.375C56.875 10.0821 56.3614 8.84209 55.4471 7.92785C54.5329 7.01361 53.2929 6.5 52 6.5C50.7071 6.5 49.4671 7.01361 48.5529 7.92785C47.6386 8.84209 47.125 10.0821 47.125 11.375V13H56.875Z" fill="#C78640"/>
<path d="M43.875 79.625L42.25 82.875L48.75 92.625H52V79.625H43.875Z" fill="#E0EDFF"/>
<path d="M62.5443 45.7519C61.9947 43.9331 61.1795 42.2055 60.125 40.625H43.875C41.7733 43.7783 40.8214 47.5591 41.1796 51.3317L41.7077 56.875H63.375V51.3581C63.3753 49.4587 63.0954 47.5696 62.5443 45.7519Z" fill="#FFB401"/>
<path d="M37.8294 19.6554L16.4704 36.7426C15.7848 37.2911 15.2585 38.0131 14.9463 38.8338C14.6341 39.6544 14.5474 40.5436 14.6951 41.4091C14.8427 42.2746 15.2195 43.0848 15.7862 43.7554C16.3528 44.4261 17.0887 44.9328 17.9174 45.2228V66.6675C17.9174 85.4607 33.2068 100.75 52 100.75C70.7932 100.75 86.0825 85.4607 86.0825 66.6675V45.2228C86.9112 44.9328 87.6472 44.4261 88.2139 43.7554C88.7805 43.0847 89.1573 42.2745 89.3049 41.409C89.4526 40.5435 89.3658 39.6542 89.0536 38.8336C88.7413 38.013 88.215 37.291 87.5294 36.7425L69.418 22.2534C69.5837 22.0824 69.7096 21.8771 69.787 21.6519C69.8644 21.4268 69.8913 21.1874 69.8659 20.9507C69.8404 20.714 69.7632 20.4858 69.6397 20.2823C69.5163 20.0787 69.3495 19.9048 69.1513 19.7729C67.8732 18.9228 66.8252 17.7696 66.1009 16.4161C65.3766 15.0627 64.9984 13.5511 65 12.016V8.32217C65 7.31898 64.7025 6.33832 64.1452 5.50421C63.5878 4.67009 62.7956 4.01998 61.8688 3.63608C60.942 3.25219 59.9221 3.15175 58.9382 3.34747C57.9543 3.54319 57.0505 4.02628 56.3412 4.73565L55.2991 5.77776C54.3123 5.19491 53.1889 4.88351 52.0429 4.87517C50.8968 4.86683 49.769 5.16185 48.7738 5.73029C47.7787 6.29872 46.9516 7.12032 46.3767 8.1117C45.8017 9.10308 45.4992 10.2289 45.5 11.375V16.25C45.4996 16.7982 45.5687 17.3442 45.7057 17.875H42.905C41.0605 17.8774 39.2713 18.505 37.8294 19.6554ZM47.7075 21.125C48.8918 22.1729 50.4187 22.751 52 22.75C53.881 22.7276 55.6766 21.9613 56.9942 20.6186C57.1461 20.4624 57.2858 20.3023 57.4152 20.1397C58.5685 21.3888 60.0846 22.2446 61.75 22.5865V28.8664C61.7527 29.657 61.5337 30.4326 61.1181 31.1052C60.7024 31.7777 60.1066 32.3204 59.3982 32.6716C59.1283 32.8065 58.9013 33.014 58.7426 33.2707C58.584 33.5274 58.5 33.8232 58.5 34.125V39H45.5V34.125C45.5 33.8232 45.416 33.5274 45.2573 33.2707C45.0987 33.014 44.8717 32.8065 44.6018 32.6716C43.8934 32.3204 43.2976 31.7777 42.8819 31.1052C42.4662 30.4326 42.2473 29.657 42.25 28.8664V21.1738C42.467 21.1427 42.6858 21.1264 42.905 21.125H47.7075ZM55.2093 17.4716C55.1992 17.8916 53.9731 19.5 52 19.5C51.1383 19.499 50.3123 19.1563 49.703 18.547C49.0937 17.9377 48.751 17.1116 48.75 16.25V14.625H55.2347L55.2087 17.4146C55.2085 17.4344 55.2087 17.4518 55.2093 17.4716ZM40.9736 66.3005L39.9641 65.291L40.8324 64.8174L40.9736 66.3005ZM36.9901 66.9133L40.3433 70.2664L37.8999 76.375H37.1594L35.8932 67.5116L36.9901 66.9133ZM44.8793 81.25H50.375V91H49.6196L44.1251 82.7583L44.8793 81.25ZM45.3526 78L43.4954 58.5H50.375V78H45.3526ZM53.625 58.5H61.6514C61.4483 59.6808 60.9208 60.7818 60.1279 61.6801C59.3351 62.5784 58.308 63.2385 57.1616 63.5866L53.625 64.6749V58.5ZM61.75 55.25H53.625V48.75H50.375V55.25H43.1858L42.7981 51.1786C42.5063 48.0685 43.1988 44.9453 44.7779 42.25H59.2278C60.8804 45.0008 61.7524 48.1499 61.75 51.359V55.25ZM18.5008 39.2804L39 22.881V28.8664C39.0001 29.6924 39.1358 30.5128 39.4017 31.2948L23.6482 39.1716C23.3338 39.3288 23.0788 39.5837 22.9216 39.8981L22.7309 40.2793C22.4367 40.8729 21.982 41.3722 21.4184 41.7205C20.8548 42.0688 20.205 42.2522 19.5424 42.25C19.1969 42.25 18.8599 42.1426 18.578 41.9428C18.2962 41.7429 18.0833 41.4605 17.969 41.1344C17.8546 40.8084 17.8444 40.4548 17.9396 40.1227C18.0349 39.7906 18.231 39.4962 18.5008 39.2804H18.5008ZM52 97.5C34.9988 97.5 21.1674 83.6686 21.1674 66.6675V45.3026C22.1088 45.0747 22.9903 44.6473 23.7524 44.0495C24.5144 43.4516 25.1392 42.6971 25.5846 41.837L41.1018 34.0784C41.451 34.44 41.8356 34.7655 42.25 35.0501V40.1456C40.1331 43.5283 39.1888 47.5138 39.5627 51.4866L40.4972 61.2982L33.3468 65.1985C33.0561 65.357 32.8208 65.6007 32.6724 65.8967C32.5239 66.1927 32.4695 66.527 32.5163 66.8548L34.1413 78.2298C34.1966 78.617 34.3897 78.9713 34.6853 79.2276C34.9808 79.4839 35.3588 79.625 35.75 79.625H39C39.3248 79.625 39.6421 79.5277 39.911 79.3456C40.1799 79.1635 40.3881 78.9051 40.5087 78.6035L41.8306 75.2988L42.2131 79.3151L40.7966 82.1483C40.6684 82.4045 40.6103 82.69 40.6281 82.976C40.6459 83.2619 40.739 83.538 40.8979 83.7764L47.3979 93.5264C47.5463 93.749 47.7473 93.9315 47.9832 94.0577C48.2191 94.184 48.4825 94.25 48.75 94.25H52C52.431 94.25 52.8443 94.0788 53.149 93.774C53.4538 93.4693 53.625 93.056 53.625 92.625V68.0752L58.1173 66.6929C60.1143 66.0866 61.8625 64.8524 63.1024 63.1737C64.3423 61.4949 65.0078 59.4611 65 57.3741V51.359C65.0039 47.3877 63.8766 43.4975 61.75 40.1437V35.0501C62.1643 34.7655 62.549 34.44 62.8981 34.0784L78.4154 41.837C78.8607 42.6971 79.4856 43.4516 80.2476 44.0495C81.0096 44.6474 81.8911 45.0747 82.8325 45.3026V66.6675C82.8325 83.6686 69.0012 97.5 52 97.5ZM86.125 40.5824C86.1245 41.0245 85.9487 41.4484 85.6361 41.761C85.3235 42.0736 84.8996 42.2495 84.4575 42.25C83.795 42.2522 83.1451 42.0688 82.5815 41.7205C82.018 41.3721 81.5633 40.8729 81.269 40.2792L81.0784 39.8981C80.9211 39.5837 80.6662 39.3288 80.3518 39.1716L64.5983 31.2948C64.8642 30.5128 64.9999 29.6924 65 28.8664V22.8809L85.4992 39.2803C85.6949 39.4361 85.8528 39.6342 85.9612 39.8597C86.0696 40.0852 86.1256 40.3323 86.125 40.5824ZM59.9278 6.49999C60.4109 6.50055 60.8741 6.69271 61.2157 7.03431C61.5573 7.37592 61.7494 7.83907 61.75 8.32217V12.016C61.7473 14.7108 62.6121 17.3349 64.2164 19.5H63.375C62.0825 19.4985 60.8434 18.9844 59.9295 18.0705C59.0155 17.1566 58.5014 15.9175 58.5 14.625H58.485L58.5 11.375C58.501 10.2141 58.1892 9.07448 57.5972 8.0759L58.6394 7.03369C58.8082 6.86395 59.009 6.72938 59.2302 6.63777C59.4513 6.54616 59.6884 6.49933 59.9278 6.49999ZM52 8.12499C52.8616 8.12598 53.6877 8.46871 54.297 9.07798C54.9063 9.68726 55.249 10.5133 55.25 11.375H48.75C48.751 10.5133 49.0937 9.68726 49.703 9.07798C50.3123 8.46871 51.1383 8.12598 52 8.12499Z" fill="black"/>
</svg>
