<svg width="22" height="22" viewBox="0 0 22 22" fill="none" xmlns="http://www.w3.org/2000/svg">
<path d="M3.52015 4.93407L0.393152 1.80807L1.80815 0.393066L21.6072 20.1931L20.1922 21.6071L16.8822 18.2971C15.1234 19.4126 13.0829 20.0034 11.0002 20.0001C5.60815 20.0001 1.12215 16.1201 0.181152 11.0001C0.611182 8.67078 1.78278 6.54296 3.52115 4.93407H3.52015ZM13.7572 15.1721L12.2932 13.7081C11.7332 13.976 11.1039 14.0636 10.4921 13.9589C9.88024 13.8541 9.31596 13.5621 8.87702 13.1232C8.43809 12.6843 8.14612 12.12 8.04137 11.5081C7.93662 10.8963 8.02424 10.267 8.29215 9.70707L6.82815 8.24307C6.19187 9.20456 5.90742 10.3564 6.02298 11.5036C6.13854 12.6507 6.647 13.7227 7.46227 14.5379C8.27754 15.3532 9.34951 15.8617 10.4967 15.9772C11.6438 16.0928 12.7957 15.8084 13.7572 15.1721ZM6.97415 2.76007C8.22115 2.27007 9.58015 2.00007 11.0002 2.00007C16.3922 2.00007 20.8782 5.88007 21.8192 11.0001C21.5127 12.6658 20.824 14.2376 19.8072 15.5921L15.9472 11.7321C16.0618 10.9597 15.994 10.1712 15.7491 9.42972C15.5042 8.68827 15.089 8.01448 14.5369 7.46233C13.9847 6.91019 13.311 6.49504 12.5695 6.25014C11.828 6.00524 11.0395 5.93741 10.2672 6.05207L6.97415 2.76107V2.76007Z" fill="white"/>
</svg>
