<svg width="104" height="104" viewBox="0 0 104 104" fill="none" xmlns="http://www.w3.org/2000/svg">
<path d="M0 8C0 3.58172 3.58172 0 8 0H104V104H8C3.58172 104 0 100.418 0 96V8Z" fill="#F6CBCB"/>
<path d="M40.625 78.5992C40.6248 79.9402 40.3346 81.2653 39.7743 82.4837C39.2141 83.702 38.397 84.7848 37.3791 85.6578L29.25 92.625L19.5 94.25L30.875 79.625L23.7677 72.5177C22.851 71.601 22.1427 70.4976 21.6909 69.2826C21.2391 68.0675 21.0544 66.7694 21.1494 65.4766C21.2445 64.1838 21.617 62.9266 22.2416 61.7907C22.8662 60.6548 23.7283 59.6668 24.7691 58.894L37.9031 72.0281C38.7664 72.8908 39.4512 73.9152 39.9182 75.0427C40.3853 76.1702 40.6254 77.3788 40.625 78.5992Z" fill="#FFBFA1"/>
<path d="M29.25 92.625L35.75 97.5V99.125H19.5V94.25L29.25 92.625Z" fill="#D1E4FF"/>
<path d="M37.3751 71.5L29.2501 78L23.7677 72.5177C22.8511 71.601 22.1428 70.4976 21.691 69.2826C21.2392 68.0675 21.0545 66.7694 21.1495 65.4766C21.2446 64.1838 21.6171 62.9266 22.2417 61.7907C22.8663 60.6548 23.7283 59.6668 24.7691 58.894L37.3751 71.5Z" fill="#FFA100"/>
<path d="M45.5 45.5L52 52L48.4712 55.5288C48.0444 55.9556 47.5377 56.2942 46.9801 56.5251C46.4224 56.7561 45.8248 56.875 45.2212 56.875C44.6176 56.875 44.0199 56.7561 43.4623 56.5251C42.9047 56.2942 42.398 55.9556 41.9712 55.5288C41.5444 55.102 41.2058 54.5953 40.9749 54.0377C40.7439 53.4801 40.625 52.8824 40.625 52.2788C40.625 51.6752 40.7439 51.0776 40.9749 50.5199C41.2058 49.9623 41.5444 49.4556 41.9712 49.0288L45.5 45.5Z" fill="#FFCEB6"/>
<path d="M45.5 45.5L47.125 43.875H53.625L54.101 44.351C54.4652 44.7152 54.7542 45.1477 54.9514 45.6237C55.1485 46.0997 55.25 46.6098 55.25 47.125C55.25 48.1655 54.8367 49.1633 54.101 49.899L52 52L45.5 45.5Z" fill="#C78640"/>
<path d="M58.5 81.25V84.5H53.625L50.375 82.875L48.75 84.5H47.125V78L41.472 67.8254L39 63.375L27.0826 69.3327L16.644 58.894C17.2334 58.4569 17.8739 58.0933 18.5514 57.8114L29.8939 53.0867C31.6854 52.3399 33.6117 51.9706 35.5523 52.0018C37.493 52.0331 39.4064 52.4642 41.1729 53.2682C42.9395 54.0723 44.5212 55.232 45.8193 56.675C47.1175 58.1179 48.1041 59.8131 48.7175 61.6545L49.4467 63.8402L53.625 76.375L58.5 81.25Z" fill="#FFCEB6"/>
<path d="M92.625 4.875V24.375C92.6248 26.0988 91.9399 27.752 90.721 28.971C89.502 30.1899 87.8488 30.8748 86.125 30.875H78V45.5L75.2497 63.375L71.5 87.75H63.375V27.625C63.3752 25.9012 64.0601 24.248 65.279 23.029C66.498 21.8101 68.1512 21.1252 69.875 21.125H84.5L86.125 11.375L84.5 8.125L86.125 4.875H92.625Z" fill="#FFCEB6"/>
<path d="M66.625 11.375H76.375V16.25C76.375 17.5429 75.8614 18.7829 74.9471 19.6971C74.0329 20.6114 72.7929 21.125 71.5 21.125C70.2071 21.125 68.9671 20.6114 68.0529 19.6971C67.1386 18.7829 66.625 17.5429 66.625 16.25V11.375Z" fill="#FFCEB6"/>
<path d="M66.625 11.375V8.125L70.5573 5.50347C71.172 5.09368 71.8942 4.875 72.633 4.875C73.1244 4.875 73.611 4.97179 74.065 5.15984C74.519 5.34789 74.9315 5.62353 75.279 5.97101C75.6265 6.31848 75.9021 6.731 76.0902 7.185C76.2782 7.639 76.375 8.1256 76.375 8.61701V11.375H66.625Z" fill="#C78640"/>
<path d="M63.375 87.75H71.5L73.125 97.5L71.5 99.125L61.75 91L63.375 87.75Z" fill="#E0EDFF"/>
<path d="M79.625 21.125V30.875H78V45.5H63.375V27.625C63.3752 25.9012 64.0601 24.248 65.279 23.029C66.498 21.8101 68.1512 21.1252 69.875 21.125H79.625Z" fill="#548AFF"/>
<path d="M78 45.5L75.2497 63.375H63.375V45.5H78Z" fill="#FFB401"/>
<path d="M32.5 78.5992C32.4998 79.9402 32.2096 81.2653 31.6493 82.4837C31.0891 83.702 30.272 84.7848 29.2541 85.6578L21.125 92.625L11.375 94.25L22.75 79.625L15.6427 72.5177C14.726 71.601 14.0177 70.4976 13.5659 69.2826C13.1141 68.0675 12.9294 66.7694 13.0244 65.4766C13.1195 64.1838 13.492 62.9266 14.1166 61.7907C14.7412 60.6548 15.6033 59.6668 16.6441 58.894L29.7781 72.0281C30.6414 72.8908 31.3262 73.9152 31.7932 75.0427C32.2603 76.1702 32.5004 77.3788 32.5 78.5992Z" fill="#FFCEB6"/>
<path d="M21.125 92.625L27.625 97.5V99.125H11.375V94.25L21.125 92.625Z" fill="#E0EDFF"/>
<path d="M29.2501 71.5L21.1251 78L15.6427 72.5177C14.7261 71.601 14.0178 70.4976 13.566 69.2826C13.1142 68.0675 12.9295 66.7694 13.0245 65.4766C13.1196 64.1838 13.4921 62.9266 14.1167 61.7907C14.7413 60.6548 15.6033 59.6668 16.6441 58.894L29.2501 71.5Z" fill="#FFB401"/>
<path d="M49.4467 63.8402L41.472 67.8254L39 63.375L27.0826 69.3327L16.644 58.894C17.2334 58.4569 17.8739 58.0933 18.5514 57.8114L29.8939 53.0867C31.6854 52.3399 33.6117 51.9706 35.5523 52.0018C37.493 52.0331 39.4064 52.4642 41.1729 53.2682C42.9395 54.0723 44.5212 55.232 45.8193 56.675C47.1175 58.1179 48.1041 59.8131 48.7175 61.6545L49.4467 63.8402Z" fill="#548AFF"/>
<path d="M61.75 27.625V87.3664L60.2966 90.2732C60.1328 90.6008 60.0844 90.9741 60.1594 91.3326C60.2344 91.6911 60.4283 92.0138 60.7097 92.2483L70.4597 100.373C70.7712 100.633 71.1685 100.767 71.5736 100.748C71.9787 100.73 72.3623 100.561 72.649 100.274L74.274 98.6491C74.457 98.4662 74.5936 98.2423 74.6725 97.9959C74.7514 97.7496 74.7704 97.488 74.7279 97.2328L73.1457 87.7397L79.6062 45.7472C79.6187 45.6654 79.625 45.5827 79.625 45.5V32.5H86.125C88.2791 32.4976 90.3443 31.6407 91.8676 30.1175C93.3908 28.5943 94.2476 26.5291 94.25 24.375V4.875C94.25 4.44403 94.0788 4.0307 93.7741 3.72596C93.4693 3.42121 93.056 3.25001 92.625 3.25H86.125C85.8232 3.24999 85.5274 3.33402 85.2707 3.49266C85.014 3.6513 84.8066 3.87829 84.6716 4.1482L83.0466 7.3982C82.9337 7.62386 82.875 7.8727 82.875 8.125C82.875 8.37731 82.9337 8.62615 83.0466 8.85181L84.4352 11.6291L83.1235 19.5H77.1255C77.6992 18.513 78.0009 17.3916 78 16.25V8.61695C78 7.64553 77.7363 6.69232 77.2371 5.85898C76.7379 5.02564 76.0219 4.34342 75.1654 3.88505C74.309 3.42668 73.3441 3.20936 72.3738 3.25626C71.4036 3.30316 70.4642 3.61253 69.6559 4.15137L65.7236 6.77295C65.501 6.92133 65.3185 7.12238 65.1923 7.35824C65.0661 7.5941 65 7.85748 65 8.125V16.25C64.999 17.7136 65.4945 19.1343 66.4056 20.2798C65.0141 20.9381 63.838 21.9778 63.0139 23.278C62.1898 24.5783 61.7515 26.0856 61.75 27.625ZM65 47.125H76.1059L73.8559 61.75H65V47.125ZM63.7791 90.5755L64.3793 89.375H70.1234L71.3791 96.9089L63.7791 90.5755ZM70.1058 86.125H65V65H73.3559L70.1058 86.125ZM84.5 22.75C84.8847 22.75 85.2568 22.6136 85.5504 22.3649C85.8439 22.1163 86.0396 21.7716 86.1029 21.3922L87.7279 11.6422C87.7844 11.3034 87.732 10.9554 87.5784 10.6482L86.3168 8.125L87.1293 6.5H91V24.375C90.9986 25.6675 90.4845 26.9066 89.5705 27.8205C88.6566 28.7345 87.4175 29.2485 86.125 29.25H81.25V22.75H84.5ZM71.5 19.5C70.6384 19.499 69.8123 19.1563 69.203 18.547C68.5937 17.9377 68.251 17.1117 68.25 16.25V13H74.75V16.25C74.749 17.1117 74.4063 17.9377 73.797 18.547C73.1877 19.1563 72.3617 19.499 71.5 19.5ZM71.4587 6.85547C71.7775 6.64295 72.148 6.52095 72.5307 6.50247C72.9135 6.48398 73.294 6.56971 73.6319 6.75051C73.9697 6.93131 74.2521 7.20041 74.449 7.5291C74.646 7.8578 74.75 8.23378 74.75 8.61695V9.75H68.25V8.99463L71.4587 6.85547ZM69.875 22.75H78V29.25H71.5V32.5H76.375V43.875H65V27.625C65.0015 26.3325 65.5156 25.0934 66.4295 24.1795C67.3434 23.2655 68.5825 22.7515 69.875 22.75Z" fill="black"/>
<path d="M9.75 94.25V99.125C9.75 99.556 9.92121 99.9693 10.226 100.274C10.5307 100.579 10.944 100.75 11.375 100.75H35.75C36.181 100.75 36.5943 100.579 36.899 100.274C37.2038 99.9693 37.375 99.556 37.375 99.125V97.5C37.375 97.2477 37.3162 96.9989 37.2034 96.7732C37.0906 96.5476 36.9268 96.3513 36.725 96.1999L31.8456 92.5405L38.4366 86.8909C39.579 85.9117 40.5067 84.7071 41.1616 83.3525C41.8164 81.9978 42.1842 80.5225 42.242 79.0191C42.2997 77.5156 42.0461 76.0164 41.4971 74.6156C40.9481 73.2147 40.1156 71.9424 39.0517 70.8785L35.2433 67.0702L38.3351 65.5243L45.5 78.4211V84.5C45.5 84.931 45.6712 85.3443 45.976 85.649C46.2807 85.9538 46.694 86.125 47.125 86.125H48.75C49.181 86.125 49.5943 85.9538 49.899 85.6491L50.6959 84.8523L52.8983 85.9534C53.1239 86.0663 53.3727 86.125 53.625 86.125H58.5C58.931 86.125 59.3443 85.9538 59.649 85.649C59.9538 85.3443 60.125 84.931 60.125 84.5V81.25C60.125 80.819 59.9538 80.4056 59.649 80.1009L55.0453 75.4972L50.2596 61.14C49.8372 59.8739 49.2558 58.6665 48.5294 57.5467C48.9243 57.2988 49.2902 57.0074 49.6202 56.678L53.149 53.1491L55.25 51.0482C56.2905 50.0077 56.875 48.5965 56.875 47.125C56.875 45.6535 56.2904 44.2423 55.2499 43.2018L54.7739 42.7259C54.4692 42.4212 54.0559 42.25 53.625 42.25H47.125C46.694 42.25 46.2807 42.4212 45.976 42.7259L44.351 44.3509L40.8222 47.8798C40.003 48.6954 39.429 49.7245 39.1655 50.8501C35.8734 50.0227 32.402 50.2809 29.2684 51.586L17.926 56.312C16.3117 56.9847 14.8881 58.0446 13.7808 59.3982C12.6735 60.7517 11.9167 62.3572 11.5774 64.0728C11.238 65.7883 11.3265 67.561 11.835 69.2342C12.3435 70.9074 13.2564 72.4296 14.493 73.6661L20.5866 79.7597L10.0923 93.2524C9.87042 93.5376 9.74997 93.8887 9.75 94.25ZM13 97.5V95.6266L20.7063 94.3423L24.9166 97.5H13ZM33.0416 97.5H29.25C29.25 97.2477 29.1912 96.9989 29.0784 96.7733C28.9656 96.5476 28.8018 96.3513 28.6 96.1999L26.6154 94.7115L28.8313 94.3423L33.0416 97.5ZM36.3216 84.4232L28.5363 91.0965L24.6496 91.7442L30.3117 86.8909C31.5083 85.8663 32.4688 84.5947 33.1271 83.1635C33.7854 81.7322 34.1258 80.1754 34.125 78.6001C34.1249 77.849 34.048 77.1 33.8955 76.3646L37.2285 73.6982C38.5159 75.2468 39.1424 77.2398 38.9727 79.2465C38.803 81.2533 37.8507 83.1127 36.3216 84.4232L36.3216 84.4232ZM34.9421 71.3653L32.6827 73.1727C32.2011 72.3339 31.6106 71.5625 30.9267 70.8785L29.8266 69.7786L32.1792 68.6023L34.9421 71.3653ZM52.476 77.5241L56.875 81.923V82.875H54.0086L51.1017 81.4216C50.7967 81.269 50.4514 81.2164 50.1147 81.271C49.7781 81.3256 49.4672 81.4847 49.226 81.7259L48.75 82.202V78C48.75 77.7239 48.6796 77.4523 48.5455 77.2109L43.7175 68.5205L48.4973 66.1306L52.0834 76.889C52.1632 77.1283 52.2976 77.3457 52.476 77.5241H52.476ZM53.625 47.125C53.6258 47.4269 53.5668 47.726 53.4513 48.0049C53.3357 48.2839 53.166 48.5371 52.952 48.75L52 49.7018L47.7982 45.5H52.952C53.166 45.7129 53.3357 45.9661 53.4513 46.2451C53.5668 46.524 53.6258 46.8231 53.625 47.125ZM43.1202 50.178L45.5 47.798L49.702 52L47.3223 54.3798C47.0713 54.6304 46.7774 54.8338 46.4545 54.9805C45.2318 53.7587 43.8161 52.7468 42.2643 51.9855C42.3303 51.3017 42.633 50.6624 43.1202 50.178ZM30.5184 54.5861C32.1038 53.9255 33.8084 53.5989 35.5257 53.6266C37.243 53.6544 38.9362 54.0359 40.4994 54.7474C42.0626 55.459 43.4624 56.4851 44.6112 57.7619C45.76 59.0386 46.6333 60.5386 47.1764 62.168L47.4591 63.0162L42.1377 65.6769L40.4205 62.5859C40.2172 62.2198 39.8804 61.9463 39.4803 61.8225C39.0802 61.6988 38.6478 61.7343 38.2733 61.9216L27.4042 67.3562L19.3061 59.2579L30.5184 54.5861ZM14.625 66.1386C14.622 64.2815 15.3194 62.4916 16.5781 61.1261L26.673 71.2211L26.7267 71.3284L26.7625 71.3106L26.8172 71.3652L21.2456 75.8225L16.791 71.3679C16.1022 70.6828 15.556 69.8678 15.1842 68.9702C14.8124 68.0726 14.6223 67.1102 14.625 66.1386ZM24.0327 80.6226C24.2759 80.3099 24.3965 79.9192 24.3719 79.5239C24.3473 79.1286 24.1791 78.7559 23.899 78.4759L23.5579 78.1347L29.1035 73.6982C30.3909 75.2469 31.0174 77.2398 30.8477 79.2466C30.678 81.2533 29.7257 83.1127 28.1966 84.4232L20.4112 91.0964L15.2125 91.9629L24.0327 80.6226Z" fill="black"/>
</svg>
