<svg width="72" height="72" viewBox="0 0 72 72" fill="none" xmlns="http://www.w3.org/2000/svg">
<path d="M43.0249 22.6289C40.5159 20.1199 40.5159 16.052 43.0249 13.543C45.5339 11.034 49.6018 11.034 52.1108 13.543C54.6197 16.052 54.6197 20.1199 52.1108 22.6289C49.6018 25.1379 45.5339 25.1378 43.0249 22.6289Z" fill="white"/>
<path fill-rule="evenodd" clip-rule="evenodd" d="M51.957 39.1653L57.3853 33.737C58.669 32.4533 60.7535 32.4533 62.0372 33.737C63.3209 35.0208 63.3209 37.1052 62.0372 38.389L54.2839 46.1423C53.0001 47.426 50.9157 47.426 49.632 46.1423C49.615 46.1253 49.5983 46.1083 49.5819 46.0911L23.5287 20.0379L18.1 25.4667C16.8162 26.7504 14.7318 26.7504 13.448 25.4667C12.1643 24.183 12.1643 22.0985 13.448 20.8148L21.2013 13.0615C21.7718 12.491 22.5004 12.174 23.2465 12.1106C23.8826 12.0564 24.5316 12.1865 25.1062 12.501C25.3744 12.6477 25.6263 12.8345 25.8533 13.0615C25.8596 13.0678 25.8659 13.0741 25.8722 13.0805L51.957 39.1653Z" fill="white"/>
<path fill-rule="evenodd" clip-rule="evenodd" d="M50.8459 61.7743C50.8298 61.7911 50.8135 61.8078 50.797 61.8243C49.5737 63.0473 47.6233 63.1046 46.3321 61.9963C46.3093 61.9767 46.2868 61.9568 46.2644 61.9366C46.224 61.8999 46.1842 61.8621 46.1452 61.8231C46.1387 61.8166 46.1322 61.8101 46.1258 61.8035L20.0429 35.7209L14.6147 41.149C13.331 42.4328 11.2465 42.4328 9.96281 41.149C8.67906 39.8653 8.67906 37.7808 9.96281 36.4971L17.7158 28.7441C17.9403 28.5197 18.1892 28.3345 18.454 28.1885C19.0545 27.8575 19.7368 27.7282 20.4012 27.8008C21.1198 27.8793 21.8174 28.1937 22.3678 28.7441C22.3825 28.7588 22.3971 28.7737 22.4115 28.7886L48.4697 54.8466L53.8985 49.4178C55.1822 48.1341 57.2667 48.1341 58.5504 49.4178C59.8342 50.7016 59.8342 52.7863 58.5504 54.0701L50.8459 61.7743Z" fill="white"/>
<path d="M36 71C16.67 71 1 55.33 1 36H-1C-1 56.4345 15.5655 73 36 73V71ZM71 36C71 55.33 55.33 71 36 71V73C56.4345 73 73 56.4345 73 36H71ZM36 1C55.33 1 71 16.67 71 36H73C73 15.5655 56.4345 -1 36 -1V1ZM36 -1C15.5655 -1 -1 15.5655 -1 36H1C1 16.67 16.67 1 36 1V-1Z" fill="white"/>
</svg>
