<svg width="22" height="22" viewBox="0 0 22 22" fill="none" xmlns="http://www.w3.org/2000/svg">
<circle cx="11" cy="11" r="3" fill="white"/>
<path fill-rule="evenodd" clip-rule="evenodd" d="M19.626 15.592C17.248 18.7597 12.9019 20.0034 10.8191 20C5.427 20 0.940918 16.1201 0 11C0.34082 9.15411 1.14722 7.43475 2.33252 5.99994C5.81885 2 9.39893 2 10.8191 2C16.2109 2 20.697 5.88 21.6379 11C21.3315 12.6657 20.6428 14.2375 19.626 15.592ZM11 16C13.7615 16 16 13.7614 16 11C16 8.23859 13.7615 6 11 6C8.23853 6 6 8.23859 6 11C6 13.7614 8.23853 16 11 16Z" fill="white"/>
</svg>
