<svg width="18" height="18" viewBox="0 0 18 18" fill="none" xmlns="http://www.w3.org/2000/svg">
<path d="M3.55258 2.69426C5.06471 1.38397 6.99924 0.663965 9.00008 0.666756C13.6026 0.666756 17.3334 4.39759 17.3334 9.00009C17.3334 10.7801 16.7751 12.4301 15.8251 13.7834L13.1667 9.00009H15.6667C15.6669 7.69311 15.2828 6.41493 14.5623 5.32447C13.8418 4.23401 12.8167 3.37939 11.6144 2.86686C10.4121 2.35433 9.08568 2.20651 7.80005 2.44177C6.51441 2.67703 5.32629 3.28501 4.38341 4.19009L3.55258 2.69426ZM14.4476 15.3059C12.9354 16.6162 11.0009 17.3362 9.00008 17.3334C4.39758 17.3334 0.666748 13.6026 0.666748 9.00009C0.666748 7.22009 1.22508 5.57009 2.17508 4.21676L4.83342 9.00009H2.33341C2.33331 10.3071 2.71737 11.5853 3.43786 12.6757C4.15835 13.7662 5.18347 14.6208 6.38577 15.1333C7.58806 15.6458 8.91449 15.7937 10.2001 15.5584C11.4857 15.3231 12.6739 14.7152 13.6167 13.8101L14.4476 15.3059Z" fill="#209DEB"/>
</svg>
