<svg width="21" height="20" viewBox="0 0 21 20" fill="none" xmlns="http://www.w3.org/2000/svg">
<path d="M13 3.33366H4.66667V16.667H16.3333V6.66699H13V3.33366ZM3 2.49366C3 2.03699 3.3725 1.66699 3.8325 1.66699H13.8333L18 5.83366V17.4945C18.0008 17.6039 17.98 17.7124 17.9388 17.8138C17.8976 17.9152 17.8369 18.0075 17.7601 18.0855C17.6832 18.1634 17.5918 18.2254 17.491 18.268C17.3902 18.3106 17.2819 18.3329 17.1725 18.3337H3.8275C3.60865 18.3321 3.39918 18.2446 3.24435 18.0899C3.08951 17.9352 3.00175 17.7258 3 17.507V2.49366ZM9.66667 9.16699V6.66699H11.3333V9.16699H13.8333V10.8337H11.3333V13.3337H9.66667V10.8337H7.16667V9.16699H9.66667Z" fill="#42E2B8"/>
</svg>
