<svg width="12" height="11" viewBox="0 0 12 11" fill="none" xmlns="http://www.w3.org/2000/svg">
<path d="M6.00003 11.0003C3.97681 11.0014 2.15228 9.7832 1.37786 7.91405C0.603447 6.0449 1.0318 3.89327 2.46303 2.46323C3.72668 1.19959 5.56848 0.706075 7.29466 1.1686C9.02084 1.63113 10.3691 2.97943 10.8317 4.7056C11.2942 6.43178 10.8007 8.27359 9.53703 9.53723C8.60075 10.4777 7.32711 11.0046 6.00003 11.0003ZM2.00003 6.08623C2.02369 8.28685 3.82058 10.055 6.0213 10.0432C8.22201 10.0313 9.9998 8.24398 9.9998 6.04323C9.9998 3.84249 8.22201 2.05512 6.0213 2.04323C3.82058 2.03146 2.02369 3.79961 2.00003 6.00023V6.08623ZM4.70453 8.00023L4.00003 7.29523L5.29503 6.00023L4.00003 4.70523L4.70503 4.00023L6.00003 5.29523L7.29503 4.00023L8.00003 4.70523L6.70503 6.00023L8.00003 7.29523L7.29553 8.00023L6.00003 6.70523L4.70503 8.00023H4.70453Z" fill="#FFA000"/>
</svg>
